<?xml version="1.0" standalone="no"?>
<!DOCTYPE svg PUBLIC "-//W3C//DTD SVG 20010904//EN"
 "http://www.w3.org/TR/2001/REC-SVG-20010904/DTD/svg10.dtd">
<svg version="1.0" xmlns="http://www.w3.org/2000/svg"
 width="561.000000pt" height="561.000000pt" viewBox="0 0 561.000000 561.000000"
 preserveAspectRatio="xMidYMid meet">
<metadata>
Created by potrace 1.11, written by Peter Selinger 2001-2013
</metadata>
<g transform="translate(0.000000,561.000000) scale(0.100000,-0.100000)"
fill="#000000" stroke="none">
<path d="M0 2805 l0 -2645 539 0 540 0 -2 207 -2 208 -295 -1 c-162 0 -297 3
-300 7 -3 4 -5 1008 -4 2231 l0 2223 262 2 c144 1 280 2 301 3 l39 0 0 205 0
205 -539 0 -539 0 0 -2645z"/>
<path d="M4530 5245 l0 -205 33 -1 c17 0 152 0 300 0 l267 0 0 -2232 0 -2233
-297 0 -298 0 -3 -207 -2 -207 539 0 539 0 0 2645 0 2645 -539 0 -539 0 0
-205z"/>
<path d="M2008 3785 c-1 -1 -26 -5 -54 -9 -165 -19 -349 -117 -549 -289 l-40
-35 0 -256 c0 -141 2 -256 5 -256 3 0 39 34 80 76 219 223 394 310 639 318
105 3 224 -14 326 -49 39 -13 183 -71 320 -130 138 -59 266 -114 285 -122 19
-8 49 -21 66 -28 175 -75 471 -104 642 -64 187 45 362 130 507 247 l60 48 1
249 c1 138 0 257 -2 265 -3 11 -30 -10 -86 -65 -153 -150 -359 -266 -533 -300
-71 -14 -204 -13 -275 1 -78 16 -286 83 -355 115 -222 100 -583 238 -670 255
-24 4 -60 12 -95 20 -27 6 -266 14 -272 9z"/>
<path d="M2075 2603 c-152 -10 -285 -45 -392 -103 -68 -37 -191 -124 -248
-176 -22 -19 -47 -39 -55 -44 -12 -7 -15 -49 -15 -268 l0 -260 110 106 c222
213 404 293 652 287 192 -4 217 -12 682 -207 183 -77 361 -147 395 -155 269
-64 426 -65 621 -2 131 41 308 140 430 238 l40 33 0 264 c0 145 -2 264 -5 264
-3 0 -30 -26 -61 -57 -205 -214 -429 -325 -674 -336 -136 -6 -302 40 -610 170
-187 79 -196 83 -235 100 -67 30 -266 95 -345 113 -107 25 -216 37 -290 33z"/>
</g>
</svg>
